<mxfile>
    <diagram id="xRz55O_QoL97wA74tfZN" name="PÃ¡gina-1">
        <mxGraphModel dx="1038" dy="523" grid="1" gridSize="10" guides="1" tooltips="1" connect="1" arrows="1" fold="1" page="1" pageScale="1" pageWidth="827" pageHeight="1169" math="0" shadow="0">
            <root>
                <mxCell id="0"/>
                <mxCell id="1" parent="0"/>
                <mxCell id="GQRIlknsS_lRS9PNtEOa-4" value="base:haSpace (1..1)" style="edgeStyle=orthogonalEdgeStyle;rounded=0;orthogonalLoop=1;jettySize=auto;html=1;exitX=1;exitY=0.5;exitDx=0;exitDy=0;" parent="1" source="GQRIlknsS_lRS9PNtEOa-1" target="GQRIlknsS_lRS9PNtEOa-2" edge="1">
                    <mxGeometry relative="1" as="geometry"/>
                </mxCell>
                <mxCell id="GQRIlknsS_lRS9PNtEOa-1" value="base:Building" style="rounded=0;whiteSpace=wrap;html=1;" parent="1" vertex="1">
                    <mxGeometry x="160" y="100" width="120" height="40" as="geometry"/>
                </mxCell>
                <mxCell id="GQRIlknsS_lRS9PNtEOa-2" value="base:Space" style="rounded=0;whiteSpace=wrap;html=1;" parent="1" vertex="1">
                    <mxGeometry x="390" y="280" width="120" height="40" as="geometry"/>
                </mxCell>
                <mxCell id="GQRIlknsS_lRS9PNtEOa-3" value="&lt;div&gt;&lt;b&gt;base&lt;/b&gt;: http://base.namespace.com#&lt;/div&gt;&lt;div&gt;&lt;b&gt;other:&lt;/b&gt; http://other.namespace.com#&lt;br&gt;&lt;/div&gt;" style="shape=note;whiteSpace=wrap;html=1;backgroundOutline=1;darkOpacity=0.05;" parent="1" vertex="1">
                    <mxGeometry x="40" y="250" width="290" height="100" as="geometry"/>
                </mxCell>
            </root>
        </mxGraphModel>
    </diagram>
</mxfile>